# xmcd
#
# Track frame offsets:
#	150
#	33021
#	71868
#	117234
#	136553
#	156654
#	187008
#
# Disc length: 2724 seconds
#
# Revision: 3
# Processed by: cddbd v1.5.2PL0 Copyright (c) Steve Scherf et al.
# Submitted via: audiograbber 1.83.01
#
DISCID=5e0aa207
DTITLE=Gregory Porter - Live In Berlin [CD 1)
DYEAR=2016
DGENRE=Jazz
TTITLE0=Holding On [live]
TTITLE1=On My Way To Harlem - What's Going On [live]
TTITLE2=Take Me To The Alley [live]
TTITLE3=Don't Lose Your Steam [live]
TTITLE4=Hey Laura [live]
TTITLE5=Liquid Spirit [live]
TTITLE6=Consequence Of Love [live]
EXTD=
EXTT0=
EXTT1=
EXTT2=
EXTT3=
EXTT4=
EXTT5=
EXTT6=
PLAYORDER=
